<?xml version="1.0" encoding="UTF-8" standalone="no"?>
<!-- Created with Inkscape (http://www.inkscape.org/) -->
<!--
    Copyright 2025 Mika INISAN

    This product includes Material Symbols & Icons created by Google.
    Google does not endorse or approve these modifications.

    Modifications by Mika INISAN: color changes, 2025

    Licensed under the Apache License, Version 2.0 (the "License");
    you may not use this file except in compliance with the License.
    You may obtain a copy of the License at

        http://www.apache.org/licenses/LICENSE-2.0

    Unless required by applicable law or agreed to in writing, software
    distributed under the License is distributed on an "AS IS" BASIS,
    WITHOUT WARRANTIES OR CONDITIONS OF ANY KIND, either express or implied.
    See the License for the specific language governing permissions and
    limitations under the License.
-->
<svg
   width="210mm"
   height="104.42946mm"
   viewBox="0 0 210 104.42946"
   version="1.1"
   id="svg1"
   xml:space="preserve"
   sodipodi:docname="L1.svg"
   inkscape:version="1.4.2 (f4327f4, 2025-05-13)"
   xmlns:inkscape="http://www.inkscape.org/namespaces/inkscape"
   xmlns:sodipodi="http://sodipodi.sourceforge.net/DTD/sodipodi-0.dtd"
   xmlns:xlink="http://www.w3.org/1999/xlink"
   xmlns="http://www.w3.org/2000/svg"
   xmlns:svg="http://www.w3.org/2000/svg"><sodipodi:namedview
     id="namedview1"
     pagecolor="#ffffff"
     bordercolor="#000000"
     borderopacity="0.25"
     inkscape:showpageshadow="2"
     inkscape:pageopacity="0.0"
     inkscape:pagecheckerboard="0"
     inkscape:deskcolor="#d1d1d1"
     inkscape:document-units="mm"
     inkscape:zoom="2.1050496"
     inkscape:cx="389.53952"
     inkscape:cy="219.23474"
     inkscape:window-width="2560"
     inkscape:window-height="1377"
     inkscape:window-x="-8"
     inkscape:window-y="-8"
     inkscape:window-maximized="1"
     inkscape:current-layer="layer2" /><defs
     id="defs1"><linearGradient
       id="linearGradient44"><stop
         style="stop-color:#999999;stop-opacity:1;"
         offset="0"
         id="stop44" /><stop
         style="stop-color:#ffdd55;stop-opacity:1;"
         offset="1"
         id="stop45" /></linearGradient><linearGradient
       id="linearGradient42"><stop
         style="stop-color:#f2f2f2;stop-opacity:1;"
         offset="0"
         id="stop42" /><stop
         style="stop-color:#c87137;stop-opacity:1;"
         offset="1"
         id="stop43" /></linearGradient><linearGradient
       id="linearGradient40"><stop
         style="stop-color:#c87137;stop-opacity:1;"
         offset="0"
         id="stop40" /><stop
         style="stop-color:#999999;stop-opacity:1;"
         offset="1"
         id="stop41" /></linearGradient><pattern
       xlink:href="#Strips1_1.5"
       preserveAspectRatio="xMidYMid"
       id="pattern57"
       patternTransform="matrix(1.4142136,-1.4142136,1.4142136,1.4142136,0,0)"
       x="0"
       y="0" /><pattern
       patternUnits="userSpaceOnUse"
       width="2.5"
       height="1"
       patternTransform="translate(0,0) scale(2,2)"
       preserveAspectRatio="xMidYMid"
       id="Strips1_1.5"
       style="fill:#e0e0e0">
      <rect
   style="stroke:none"
   x="0"
   y="-0.5"
   width="1"
   height="2"
   id="rect140" />
    </pattern><marker
       style="overflow:visible"
       id="marker22-27"
       refX="0"
       refY="0"
       orient="auto-start-reverse"
       markerWidth="0.5"
       markerHeight="0.5"
       viewBox="0 0 1 1"
       preserveAspectRatio="xMidYMid"
       markerUnits="strokeWidth"><path
         transform="scale(0.7)"
         d="m -0.21114562,-4.1055728 6.42229122,3.21114561 a 1,1 90 0 1 0,1.78885438 L -0.21114562,4.1055728 A 1.236068,1.236068 31.717474 0 1 -2,3 v -6 a 1.236068,1.236068 148.28253 0 1 1.78885438,-1.1055728 z"
         style="fill:context-stroke;fill-rule:evenodd;stroke:none"
         id="path22-3" /></marker><marker
       style="overflow:visible"
       id="marker22-34"
       refX="0"
       refY="0"
       orient="auto-start-reverse"
       markerWidth="0.5"
       markerHeight="0.5"
       viewBox="0 0 1 1"
       preserveAspectRatio="xMidYMid"
       markerUnits="strokeWidth"><path
         transform="scale(0.7)"
         d="m -0.21114562,-4.1055728 6.42229122,3.21114561 a 1,1 90 0 1 0,1.78885438 L -0.21114562,4.1055728 A 1.236068,1.236068 31.717474 0 1 -2,3 v -6 a 1.236068,1.236068 148.28253 0 1 1.78885438,-1.1055728 z"
         style="fill:context-stroke;fill-rule:evenodd;stroke:none"
         id="path22-21" /></marker><pattern
       xlink:href="#Strips1_1.5-1"
       preserveAspectRatio="xMidYMid"
       id="pattern57-5"
       patternTransform="matrix(1.4142136,-1.4142136,1.4142136,1.4142136,0,0)"
       x="0"
       y="0" /><pattern
       patternUnits="userSpaceOnUse"
       width="2.5"
       height="1"
       patternTransform="translate(0,0) scale(2,2)"
       preserveAspectRatio="xMidYMid"
       id="Strips1_1.5-1"
       style="fill:#e0e0e0">
      <rect
   style="stroke:none"
   x="0"
   y="-0.5"
   width="1"
   height="2"
   id="rect140-8" />
    </pattern><marker
       style="overflow:visible"
       id="marker22-35-6-2"
       refX="0"
       refY="0"
       orient="auto-start-reverse"
       markerWidth="0.5"
       markerHeight="0.5"
       viewBox="0 0 1 1"
       preserveAspectRatio="xMidYMid"
       markerUnits="strokeWidth"><path
         transform="scale(0.7)"
         d="m -0.21114562,-4.1055728 6.42229122,3.21114561 a 1,1 90 0 1 0,1.78885438 L -0.21114562,4.1055728 A 1.236068,1.236068 31.717474 0 1 -2,3 v -6 a 1.236068,1.236068 148.28253 0 1 1.78885438,-1.1055728 z"
         style="fill:context-stroke;fill-rule:evenodd;stroke:none"
         id="path22-2-4-7" /></marker><marker
       style="overflow:visible"
       id="marker22-35-6-2-8"
       refX="0"
       refY="0"
       orient="auto-start-reverse"
       markerWidth="0.5"
       markerHeight="0.5"
       viewBox="0 0 1 1"
       preserveAspectRatio="xMidYMid"
       markerUnits="strokeWidth"><path
         transform="scale(0.7)"
         d="m -0.21114562,-4.1055728 6.42229122,3.21114561 a 1,1 90 0 1 0,1.78885438 L -0.21114562,4.1055728 A 1.236068,1.236068 31.717474 0 1 -2,3 v -6 a 1.236068,1.236068 148.28253 0 1 1.78885438,-1.1055728 z"
         style="fill:context-stroke;fill-rule:evenodd;stroke:none"
         id="path22-2-4-7-41" /></marker><marker
       style="overflow:visible"
       id="marker22-35-6-2-1"
       refX="0"
       refY="0"
       orient="auto-start-reverse"
       markerWidth="0.5"
       markerHeight="0.5"
       viewBox="0 0 1 1"
       preserveAspectRatio="xMidYMid"
       markerUnits="strokeWidth"><path
         transform="scale(0.7)"
         d="m -0.21114562,-4.1055728 6.42229122,3.21114561 a 1,1 90 0 1 0,1.78885438 L -0.21114562,4.1055728 A 1.236068,1.236068 31.717474 0 1 -2,3 v -6 a 1.236068,1.236068 148.28253 0 1 1.78885438,-1.1055728 z"
         style="fill:context-stroke;fill-rule:evenodd;stroke:none"
         id="path22-2-4-7-0" /></marker><marker
       style="overflow:visible"
       id="marker22-35-6-2-5"
       refX="0"
       refY="0"
       orient="auto-start-reverse"
       markerWidth="0.5"
       markerHeight="0.5"
       viewBox="0 0 1 1"
       preserveAspectRatio="xMidYMid"
       markerUnits="strokeWidth"><path
         transform="scale(0.7)"
         d="m -0.21114562,-4.1055728 6.42229122,3.21114561 a 1,1 90 0 1 0,1.78885438 L -0.21114562,4.1055728 A 1.236068,1.236068 31.717474 0 1 -2,3 v -6 a 1.236068,1.236068 148.28253 0 1 1.78885438,-1.1055728 z"
         style="fill:context-stroke;fill-rule:evenodd;stroke:none"
         id="path22-2-4-7-1" /></marker><marker
       style="overflow:visible"
       id="marker22-35-6-2-1-4"
       refX="0"
       refY="0"
       orient="auto-start-reverse"
       markerWidth="0.5"
       markerHeight="0.5"
       viewBox="0 0 1 1"
       preserveAspectRatio="xMidYMid"
       markerUnits="strokeWidth"><path
         transform="scale(0.7)"
         d="m -0.21114562,-4.1055728 6.42229122,3.21114561 a 1,1 90 0 1 0,1.78885438 L -0.21114562,4.1055728 A 1.236068,1.236068 31.717474 0 1 -2,3 v -6 a 1.236068,1.236068 148.28253 0 1 1.78885438,-1.1055728 z"
         style="fill:context-stroke;fill-rule:evenodd;stroke:none"
         id="path22-2-4-7-0-8" /></marker><marker
       style="overflow:visible"
       id="marker22-35-6-2-5-4"
       refX="0"
       refY="0"
       orient="auto-start-reverse"
       markerWidth="0.5"
       markerHeight="0.5"
       viewBox="0 0 1 1"
       preserveAspectRatio="xMidYMid"
       markerUnits="strokeWidth"><path
         transform="scale(0.7)"
         d="m -0.21114562,-4.1055728 6.42229122,3.21114561 a 1,1 90 0 1 0,1.78885438 L -0.21114562,4.1055728 A 1.236068,1.236068 31.717474 0 1 -2,3 v -6 a 1.236068,1.236068 148.28253 0 1 1.78885438,-1.1055728 z"
         style="fill:context-stroke;fill-rule:evenodd;stroke:none"
         id="path22-2-4-7-1-9" /></marker><marker
       style="overflow:visible"
       id="marker22-35-6-2-3"
       refX="0"
       refY="0"
       orient="auto-start-reverse"
       markerWidth="0.5"
       markerHeight="0.5"
       viewBox="0 0 1 1"
       preserveAspectRatio="xMidYMid"
       markerUnits="strokeWidth"><path
         transform="scale(0.7)"
         d="m -0.21114562,-4.1055728 6.42229122,3.21114561 a 1,1 90 0 1 0,1.78885438 L -0.21114562,4.1055728 A 1.236068,1.236068 31.717474 0 1 -2,3 v -6 a 1.236068,1.236068 148.28253 0 1 1.78885438,-1.1055728 z"
         style="fill:context-stroke;fill-rule:evenodd;stroke:none"
         id="path22-2-4-7-7" /></marker><linearGradient
       xlink:href="#linearGradient40"
       id="linearGradient41"
       x1="81.280533"
       y1="247.12083"
       x2="128.19009"
       y2="247.12083"
       gradientUnits="userSpaceOnUse"
       gradientTransform="matrix(0.9475725,0,0,1,-3.276647,-66.648959)" /><linearGradient
       xlink:href="#linearGradient42"
       id="linearGradient43"
       x1="33.312698"
       y1="247.12083"
       x2="69.56781"
       y2="247.12083"
       gradientUnits="userSpaceOnUse"
       gradientTransform="translate(2.0581929,-66.648959)" /><linearGradient
       xlink:href="#linearGradient44"
       id="linearGradient45"
       x1="118.25129"
       y1="247.12083"
       x2="176.58057"
       y2="247.12083"
       gradientUnits="userSpaceOnUse"
       gradientTransform="translate(2.0581929,-66.648959)" /></defs><g
     id="layer2"
     style="display:inline"
     transform="translate(-2.755059e-7,-102.32717)"
     inkscape:label="layer1"><rect
       style="fill:#ffffff;fill-opacity:0;stroke:none;stroke-width:3.57447;stroke-dasharray:none"
       id="rect47"
       width="210"
       height="104.42945"
       x="2.7550593e-07"
       y="102.32716" /><text
       xml:space="preserve"
       style="font-style:normal;font-variant:normal;font-weight:500;font-stretch:normal;font-size:3.70417px;line-height:1.5;font-family:Roboto;-inkscape-font-specification:'Roboto Medium';text-align:center;text-anchor:middle;display:inline;fill:#808080;fill-opacity:0.319018;stroke:#000000;stroke-width:1.197"
       x="52.02713"
       y="113.57198"
       id="text1-2-0-8-0-5-1-7-2"><tspan
         style="font-style:normal;font-variant:normal;font-weight:bold;font-stretch:normal;font-size:3.70417px;font-family:Roboto;-inkscape-font-specification:'Roboto Bold';text-align:center;text-anchor:middle;fill:#808080;fill-opacity:1;stroke:none;stroke-width:1.197"
         x="52.02713"
         y="113.57198"
         id="tspan11-6">Improve data quality</tspan></text><path
       style="display:inline;fill:none;fill-opacity:1;stroke:#808080;stroke-width:0.529167;stroke-dasharray:none;stroke-dashoffset:0;stroke-opacity:1;marker-end:url(#marker22-35-6-2-3)"
       d="M 73.237754,112.57811 H 177.4394"
       id="path20-8-2-2-4-8" /><g
       style="fill:#808080;fill-opacity:1"
       id="g13"
       transform="matrix(0.01216475,0,0,0.01216475,12.875456,137.24156)"><path
         d="m 218.12,-132 q -35.88,0 -61,-25.38 Q 132,-182.75 132,-219 q 0,-32 21,-56.5 21,-24.5 52,-29.5 v -101 q 0,-36 26,-62 26,-26 62,-26 h 173 v -161 q -31,-5 -52,-29.5 -21,-24.5 -21,-56.5 0,-36.25 25.12,-61.63 25.12,-25.37 61,-25.37 35.88,0 61.88,25.37 26,25.38 26,61.63 0,32 -21,56.5 -21,24.5 -52,29.5 v 161 h 173 q 36,0 62,26 26,26 26,62 v 101 q 31,5 52,29.5 21,24.5 21,56.5 0,36.25 -26,61.62 -26,25.38 -61.88,25.38 -35.88,0 -61,-25.38 Q 654,-182.75 654,-219 q 0,-32 21,-56.5 21,-24.5 52,-29.5 v -101 q 0,-25.5 -17.25,-42.75 Q 692.5,-466 667,-466 H 494 v 161 q 31,5 52,29.5 21,24.5 21,56.5 0,36.25 -26,61.62 -26,25.38 -61.88,25.38 -35.88,0 -61,-25.38 Q 393,-182.75 393,-219 q 0,-32 21,-56.5 21,-24.5 52,-29.5 V -466 H 293 q -25.5,0 -42.75,17.25 Q 233,-431.5 233,-406 v 101 q 31,5 52,29.5 21,24.5 21,56.5 0,36.25 -26,61.62 -26,25.38 -61.88,25.38 z m 0.38,-28 q 24.5,0 42,-16.95 17.5,-16.94 17.5,-42 0,-25.05 -17.25,-42.05 -17.25,-17 -42.75,-17 -24,0 -41,17.5 -17,17.5 -17,41.5 0,24 17,41.5 17,17.5 41.5,17.5 z m 261,0 q 24.5,0 42,-16.95 17.5,-16.94 17.5,-42 0,-25.05 -17.25,-42.05 -17.25,-17 -42.75,-17 -24,0 -41,17.5 -17,17.5 -17,41.5 0,24 17,41.5 17,17.5 41.5,17.5 z m 261,0 q 24.5,0 42,-16.95 17.5,-16.94 17.5,-42 0,-25.05 -17.25,-42.05 -17.25,-17 -42.75,-17 -24,0 -41,17.5 -17,17.5 -17,41.5 0,24 17,41.5 17,17.5 41.5,17.5 z m -261,-522 q 24.5,0 42,-16.95 17.5,-16.94 17.5,-42 0,-25.05 -17.25,-42.05 -17.25,-17 -42.75,-17 -24,0 -41,17.5 -17,17.5 -17,41.5 0,24 17,41.5 17,17.5 41.5,17.5 z"
         id="path1-24"
         style="fill:#808080;fill-opacity:1" /></g><text
       xml:space="preserve"
       style="font-style:normal;font-variant:normal;font-weight:500;font-stretch:normal;font-size:3.70417px;line-height:1.5;font-family:Roboto;-inkscape-font-specification:'Roboto Medium';text-align:center;text-anchor:middle;display:inline;fill:#808080;fill-opacity:0.319018;stroke:#000000;stroke-width:1.197"
       x="18.684694"
       y="142.64731"
       id="text1-2-0-8-0-5-1-7-2-6-3"><tspan
         style="font-style:normal;font-variant:normal;font-weight:normal;font-stretch:normal;font-size:3.70417px;font-family:Roboto;-inkscape-font-specification:Roboto;text-align:center;text-anchor:middle;fill:#808080;fill-opacity:1;stroke:none;stroke-width:1.197"
         x="18.684694"
         y="142.64731"
         id="tspan11-6-1-7">Batch</tspan></text><path
       d="m 19.621089,161.04824 q -0.429013,0 -0.732315,-0.3002 -0.303303,-0.30034 -0.303303,-0.72922 0,-0.42901 0.300205,-0.73232 0.300334,-0.3033 0.729217,-0.3033 0.429012,0 0.732315,0.30021 0.303303,0.30033 0.303303,0.72921 0,0.42902 -0.300205,0.73232 -0.300334,0.3033 -0.729217,0.3033 z m -0.0031,-0.36138 q 0.271036,0 0.471087,-0.20005 0.200051,-0.20005 0.200051,-0.47109 0,-0.27103 -0.200051,-0.47109 -0.200051,-0.20005 -0.471087,-0.20005 -0.271037,0 -0.471087,0.20005 -0.200051,0.20006 -0.200051,0.47109 0,0.27104 0.200051,0.47109 0.20005,0.20005 0.471087,0.20005 z m 1.161585,-3.25244 q -0.916362,0 -1.542327,-0.62596 -0.625965,-0.62597 -0.625965,-1.54233 0,-0.91636 0.625965,-1.54233 0.625965,-0.62596 1.542327,-0.62596 0.916361,0 1.542327,0.62596 0.625965,0.62597 0.625965,1.54233 0,0.91636 -0.625965,1.54233 -0.625966,0.62596 -1.542327,0.62596 z m 0,-0.36138 q 0.761483,0 1.284197,-0.52271 0.522713,-0.52272 0.522713,-1.2842 0,-0.76148 -0.522713,-1.2842 -0.522714,-0.52271 -1.284197,-0.52271 -0.761484,0 -1.284197,0.52271 -0.522713,0.52272 -0.522713,1.2842 0,0.76148 0.522713,1.2842 0.522713,0.52271 1.284197,0.52271 z m -4.749592,2.5813 q -0.638872,0 -1.093826,-0.45495 -0.454954,-0.45496 -0.454954,-1.09383 0,-0.63887 0.454954,-1.09383 0.454954,-0.45495 1.093826,-0.45495 0.638872,0 1.093826,0.45495 0.454954,0.45496 0.454954,1.09383 0,0.63887 -0.454954,1.09383 -0.454954,0.45495 -1.093826,0.45495 z m 5.16e-4,-0.36138 q 0.489931,0 0.838406,-0.34899 0.348476,-0.34887 0.348476,-0.83893 0,-0.48993 -0.348992,-0.8384 -0.348862,-0.34848 -0.838922,-0.34848 -0.489931,0 -0.838406,0.34899 -0.348476,0.34887 -0.348476,0.83893 0,0.48993 0.348992,0.8384 0.348862,0.34848 0.838922,0.34848 z m 3.587491,0.72276 z m 1.161585,-4.74959 z m -4.749592,2.83943 z"
       id="path1-1"
       style="fill:#808080;fill-opacity:1;stroke-width:0.0129065" /><text
       xml:space="preserve"
       style="font-style:normal;font-variant:normal;font-weight:500;font-stretch:normal;font-size:3.70417px;line-height:1.5;font-family:Roboto;-inkscape-font-specification:'Roboto Medium';text-align:center;text-anchor:middle;display:inline;fill:#808080;fill-opacity:0.319018;stroke:#000000;stroke-width:1.197"
       x="18.767893"
       y="167.95122"
       id="text1-2-0-8-0-5-1-7-2-6-3-1"><tspan
         style="font-style:normal;font-variant:normal;font-weight:normal;font-stretch:normal;font-size:3.70417px;font-family:Roboto;-inkscape-font-specification:Roboto;text-align:center;text-anchor:middle;fill:#808080;fill-opacity:1;stroke:none;stroke-width:1.197"
         x="18.767893"
         y="167.95122"
         id="tspan11-6-1-7-3">Streaming</tspan></text><rect
       style="display:inline;fill:#f2f2f2;fill-opacity:1;stroke:#808080;stroke-width:0.529167;stroke-dasharray:none;stroke-dashoffset:0;stroke-opacity:1"
       id="rect43-1"
       width="142.84544"
       height="58.171989"
       x="35.582108"
       y="118.86034" /><path
       style="display:inline;fill:none;fill-opacity:1;stroke:#808080;stroke-width:0.529167;stroke-dasharray:none;stroke-dashoffset:0;stroke-opacity:1;marker-end:url(#marker22-35-6-2-1)"
       d="M 26.957581,135.0014 H 42.638174"
       id="path20-8-2-2-4-4" /><path
       style="display:inline;fill:none;fill-opacity:1;stroke:#808080;stroke-width:0.529167;stroke-dasharray:none;stroke-dashoffset:0;stroke-opacity:1;marker-end:url(#marker22-35-6-2-5)"
       d="M 26.957581,154.59895 H 42.638174"
       id="path20-8-2-2-4-96" /><text
       xml:space="preserve"
       style="font-style:normal;font-variant:normal;font-weight:500;font-stretch:normal;font-size:3.70417px;line-height:1.5;font-family:Roboto;-inkscape-font-specification:'Roboto Medium';text-align:center;text-anchor:middle;display:inline;fill:#808080;fill-opacity:0.319018;stroke:#000000;stroke-width:1.197"
       x="42.994041"
       y="143.32068"
       id="text1-2-0-8-0-5-1-7-2-6"><tspan
         style="font-style:normal;font-variant:normal;font-weight:bold;font-stretch:normal;font-size:3.70417px;font-family:Roboto;-inkscape-font-specification:'Roboto Bold';text-align:center;text-anchor:middle;fill:#808080;fill-opacity:1;stroke:none;stroke-width:1.197"
         x="42.994041"
         y="143.32068"
         id="tspan11-6-1">Raw</tspan><tspan
         style="font-style:normal;font-variant:normal;font-weight:bold;font-stretch:normal;font-size:3.70417px;font-family:Roboto;-inkscape-font-specification:'Roboto Bold';text-align:center;text-anchor:middle;fill:#808080;fill-opacity:1;stroke:none;stroke-width:1.197"
         x="42.994041"
         y="148.87694"
         id="tspan37">data</tspan></text><text
       xml:space="preserve"
       style="font-style:normal;font-variant:normal;font-weight:500;font-stretch:normal;font-size:3.70417px;line-height:1.5;font-family:Roboto;-inkscape-font-specification:'Roboto Medium';text-align:center;text-anchor:middle;display:inline;fill:#c87137;fill-opacity:1;stroke:#000000;stroke-width:1.197"
       x="60.918766"
       y="129.94727"
       id="text1-2-0-8-0-5-1-7-2-6-3-1-3"><tspan
         style="font-style:normal;font-variant:normal;font-weight:bold;font-stretch:normal;font-size:3.70417px;font-family:Roboto;-inkscape-font-specification:'Roboto Bold';text-align:center;text-anchor:middle;fill:#c87137;fill-opacity:1;stroke:none;stroke-width:1.197"
         x="60.918766"
         y="129.94727"
         id="tspan11-6-1-7-3-72">Bronze</tspan></text><path
       d="m 50.40597,155.38351 v -21.16666 h 21.166667 v 21.16666 z M 51.368086,140.9517 H 70.61052 v -5.77272 H 51.368086 Z m 0,6.73485 H 70.61052 v -5.77274 H 51.368086 Z m 0,6.73485 H 70.61052 v -5.77274 H 51.368086 Z m 2.748925,-15.32522 v -2.06169 h 2.061684 v 2.06169 z m 0,6.73485 v -2.06169 h 2.061684 v 2.06169 z m 0,6.73485 v -2.06169 h 2.061684 v 2.06169 z"
       id="path1-087-2-1"
       style="display:inline;fill:#c87137;fill-opacity:1;stroke-width:0.0343615" /><text
       xml:space="preserve"
       style="font-style:normal;font-variant:normal;font-weight:500;font-stretch:normal;font-size:3.70417px;line-height:1.5;font-family:Roboto;-inkscape-font-specification:'Roboto Medium';text-align:center;text-anchor:middle;display:inline;fill:#808080;fill-opacity:0.319018;stroke:#000000;stroke-width:1.197"
       x="60.962173"
       y="162.2865"
       id="text1-2-0-8-0-5-1-7-2-6-3-1-3-5-0-7"><tspan
         style="font-style:normal;font-variant:normal;font-weight:normal;font-stretch:normal;font-size:3.70417px;font-family:Roboto;-inkscape-font-specification:Roboto;text-align:center;text-anchor:middle;fill:#808080;fill-opacity:1;stroke:none;stroke-width:1.197"
         x="60.962173"
         y="162.2865"
         id="tspan11-6-1-7-3-72-7-0-1">Raw integration</tspan></text><path
       style="display:inline;fill:none;fill-opacity:1;stroke:#808080;stroke-width:0.529167;stroke-dasharray:none;stroke-dashoffset:0;stroke-opacity:1;marker-end:url(#marker22-35-6-2)"
       d="M 75.806064,144.80018 H 91.486657"
       id="path20-8-2-2-4" /><text
       xml:space="preserve"
       style="font-style:normal;font-variant:normal;font-weight:500;font-stretch:normal;font-size:3.70417px;line-height:1.5;font-family:Roboto;-inkscape-font-specification:'Roboto Medium';text-align:center;text-anchor:middle;display:inline;fill:#999999;fill-opacity:1;stroke:#000000;stroke-width:1.197"
       x="107.51536"
       y="129.94727"
       id="text1-2-0-8-0-5-1-7-2-6-3-1-3-5"><tspan
         style="font-style:normal;font-variant:normal;font-weight:bold;font-stretch:normal;font-size:3.70417px;font-family:Roboto;-inkscape-font-specification:'Roboto Bold';text-align:center;text-anchor:middle;fill:#999999;fill-opacity:1;stroke:none;stroke-width:1.197"
         x="107.51536"
         y="129.94727"
         id="tspan11-6-1-7-3-72-7">Silver</tspan></text><path
       d="M 96.972731,155.38351 V 134.21684 H 118.1394 v 21.16667 z m 0.962117,-14.43182 h 19.242432 v -5.7727 H 97.934848 Z m 0,6.73485 h 19.242432 v -5.77273 H 97.934848 Z m 0,6.73485 h 19.242432 v -5.77273 H 97.934848 Z m 2.748932,-15.32522 v -2.06169 h 2.06168 v 2.06169 z m 0,6.73485 v -2.06169 h 2.06168 v 2.06169 z m 0,6.73485 v -2.06169 h 2.06168 v 2.06169 z"
       id="path1-087-2-1-9"
       style="display:inline;fill:#999999;fill-opacity:1;stroke-width:0.0343615" /><text
       xml:space="preserve"
       style="font-style:normal;font-variant:normal;font-weight:500;font-stretch:normal;font-size:3.70417px;line-height:1.5;font-family:Roboto;-inkscape-font-specification:'Roboto Medium';text-align:center;text-anchor:middle;display:inline;fill:#808080;fill-opacity:0.319018;stroke:#000000;stroke-width:1.197"
       x="107.48824"
       y="162.39503"
       id="text1-2-0-8-0-5-1-7-2-6-3-1-3-5-0-7-3"><tspan
         style="font-style:normal;font-variant:normal;font-weight:normal;font-stretch:normal;font-size:3.70417px;font-family:Roboto;-inkscape-font-specification:Roboto;text-align:center;text-anchor:middle;fill:#808080;fill-opacity:1;stroke:none;stroke-width:1.197"
         x="107.48824"
         y="162.39503"
         id="tspan20">Filtered, cleaned,</tspan><tspan
         style="font-style:normal;font-variant:normal;font-weight:normal;font-stretch:normal;font-size:3.70417px;font-family:Roboto;-inkscape-font-specification:Roboto;text-align:center;text-anchor:middle;fill:#808080;fill-opacity:1;stroke:none;stroke-width:1.197"
         x="107.48824"
         y="167.95129"
         id="tspan47">augmented</tspan></text><path
       style="display:inline;fill:none;fill-opacity:1;stroke:#808080;stroke-width:0.529167;stroke-dasharray:none;stroke-dashoffset:0;stroke-opacity:1;marker-end:url(#marker22-35-6-2-8)"
       d="m 122.37273,144.80018 h 15.68059"
       id="path20-8-2-2-4-9" /><text
       xml:space="preserve"
       style="font-style:normal;font-variant:normal;font-weight:500;font-stretch:normal;font-size:3.70417px;line-height:1.5;font-family:Roboto;-inkscape-font-specification:'Roboto Medium';text-align:center;text-anchor:middle;display:inline;fill:#ffdd55;fill-opacity:1;stroke:#000000;stroke-width:1.197"
       x="154.13811"
       y="129.94727"
       id="text1-2-0-8-0-5-1-7-2-6-3-1-3-5-0"><tspan
         style="font-style:normal;font-variant:normal;font-weight:bold;font-stretch:normal;font-size:3.70417px;font-family:Roboto;-inkscape-font-specification:'Roboto Bold';text-align:center;text-anchor:middle;fill:#ffdd55;fill-opacity:1;stroke:none;stroke-width:1.197"
         x="154.13811"
         y="129.94727"
         id="tspan11-6-1-7-3-72-7-0">Gold</tspan></text><path
       d="m 143.5394,155.38351 v -21.16667 h 21.16667 v 21.16667 z m 0.96212,-14.43182 h 19.24243 v -5.7727 h -19.24243 z m 0,6.73485 h 19.24243 v -5.77273 h -19.24243 z m 0,6.73485 h 19.24243 v -5.77273 h -19.24243 z m 2.74892,-15.32522 v -2.06169 h 2.06169 v 2.06169 z m 0,6.73485 v -2.06169 h 2.06169 v 2.06169 z m 0,6.73485 v -2.06169 h 2.06169 v 2.06169 z"
       id="path1-087-2-1-3"
       style="display:inline;fill:#ffdd55;fill-opacity:1;stroke-width:0.0343615" /><text
       xml:space="preserve"
       style="font-style:normal;font-variant:normal;font-weight:500;font-stretch:normal;font-size:3.70417px;line-height:1.5;font-family:Roboto;-inkscape-font-specification:'Roboto Medium';text-align:center;text-anchor:middle;display:inline;fill:#808080;fill-opacity:0.319018;stroke:#000000;stroke-width:1.197"
       x="154.11098"
       y="162.39496"
       id="text1-2-0-8-0-5-1-7-2-6-3-1-3-5-0-7-3-1"><tspan
         style="font-style:normal;font-variant:normal;font-weight:normal;font-stretch:normal;font-size:3.70417px;font-family:Roboto;-inkscape-font-specification:Roboto;text-align:center;text-anchor:middle;fill:#808080;fill-opacity:1;stroke:none;stroke-width:1.197"
         x="154.11098"
         y="162.39496"
         id="tspan20-2">Business-level</tspan><tspan
         style="font-style:normal;font-variant:normal;font-weight:normal;font-stretch:normal;font-size:3.70417px;font-family:Roboto;-inkscape-font-specification:Roboto;text-align:center;text-anchor:middle;fill:#808080;fill-opacity:1;stroke:none;stroke-width:1.197"
         x="154.11098"
         y="167.95122"
         id="tspan21">aggregates</tspan></text><path
       style="display:inline;fill:none;fill-opacity:1;stroke:#808080;stroke-width:0.529167;stroke-dasharray:none;stroke-dashoffset:0;stroke-opacity:1;marker-end:url(#marker22-35-6-2-1-4)"
       d="m 170.11875,135.0014 h 15.68059"
       id="path20-8-2-2-4-4-5" /><path
       style="display:inline;fill:none;fill-opacity:1;stroke:#808080;stroke-width:0.529167;stroke-dasharray:none;stroke-dashoffset:0;stroke-opacity:1;marker-end:url(#marker22-35-6-2-5-4)"
       d="m 170.11875,154.59895 h 15.68059"
       id="path20-8-2-2-4-96-5" /><g
       style="fill:#808080;fill-opacity:1"
       id="g6"
       transform="matrix(0.01216475,0,0,0.01216475,189.4561,137.24156)"><path
         d="m 400,-318 q 100,0 170,-70.29 70,-70.29 70,-170.71 0,-100.42 -70,-170.71 Q 500,-800 400,-800 q -100,0 -170,70.29 -70,70.29 -70,170.71 0,100.42 70,170.71 70,70.29 170,70.29 z m -14,-143 v -226 h 28 v 226 z m -132,0 v -151 h 28 v 151 z m 264,0 v -113 h 28 v 113 z m 291,329 -229,-229 q -36,32 -82.15,50.5 Q 451.69,-292 400,-292 287.77,-292 209.89,-369.84 132,-447.68 132,-559.84 132,-672 209.84,-750 q 77.84,-78 190,-78 112.16,0 190.16,77.89 78,77.89 78,190.11 0,51.69 -18.5,97.85 Q 631,-416 599,-381 l 229,229 z"
         id="path1-79"
         style="fill:#808080;fill-opacity:1" /></g><text
       xml:space="preserve"
       style="font-style:normal;font-variant:normal;font-weight:500;font-stretch:normal;font-size:3.70417px;line-height:1.5;font-family:Roboto;-inkscape-font-specification:'Roboto Medium';text-align:center;text-anchor:middle;display:inline;fill:#808080;fill-opacity:0.319018;stroke:#000000;stroke-width:1.197"
       x="195.30603"
       y="142.50261"
       id="text1-2-0-8-0-5-1-7-2-6-3-1-0"><tspan
         style="font-style:normal;font-variant:normal;font-weight:normal;font-stretch:normal;font-size:3.70417px;font-family:Roboto;-inkscape-font-specification:Roboto;text-align:center;text-anchor:middle;fill:#808080;fill-opacity:1;stroke:none;stroke-width:1.197"
         x="195.30603"
         y="142.50261"
         id="tspan11-6-1-7-3-7">BI</tspan></text><g
       style="display:inline;fill:#808080;fill-opacity:1"
       id="g45-4-6"
       transform="matrix(0.01399449,0,0,0.01399449,188.50085,164.82354)"><path
         d="m 346,-212 q -8,0 -15,-3.5 -7,-3.5 -11,-11.5 l -68,-123 h 48 l 36,68 h 77 v -28 h -60 l -36,-68 h -81 l -49,-87 q -2,-4 -3,-7.5 -1,-3.5 -1,-7.5 0,-2 4,-15 l 49,-87 h 81 l 36,-68 h 60 v -28 h -77 l -36,68 h -48 l 68,-123 q 4,-8 11,-11.5 7,-3.5 15,-3.5 h 90 q 13,0 21.5,8.5 8.5,8.5 8.5,21.5 v 140 h -61 l -28,28 h 89 v 106 h -76 l -34,-67 h -69 l -28,28 h 80 l 34,67 h 93 v 174 q 0,13 -8.5,21.5 -8.5,8.5 -21.5,8.5 z m 214,0 q -23,0 -38.5,-15.5 Q 506,-243 506,-266 q 0,-19 11.5,-33 11.5,-14 28.5,-19 v -324 q -17,-5 -28.5,-19 -11.5,-14 -11.5,-33 0,-23 15.5,-38.5 15.5,-15.5 38.5,-15.5 23,0 38.5,15.5 15.5,15.5 15.5,38.5 0,19 -11.5,33 -11.5,14 -28.5,19 v 120 l 108,-65 q -8,-26 8.5,-47 16.5,-21 43.5,-21 23,0 38.5,15.5 15.5,15.5 15.5,38.5 0,23 -15.5,38.5 -15.5,15.5 -38.5,15.5 -11,0 -20,-4.5 -9,-4.5 -17,-11.5 l -112,68 117,93 q 7,-5 15,-7.5 8,-2.5 17,-2.5 23,0 38.5,15.5 15.5,15.5 15.5,38.5 0,23 -15.5,38.5 -15.5,15.5 -38.5,15.5 -30,0 -45.5,-25 -15.5,-25 -4.5,-51 l -110,-88 v 151 q 17,5 28,18.5 11,13.5 11,32.5 0,23 -15,38.5 -15,15.5 -38,15.5 z"
         id="path1-9-3-1"
         style="fill:#808080;fill-opacity:1" /></g><text
       xml:space="preserve"
       style="font-style:normal;font-variant:normal;font-weight:500;font-stretch:normal;font-size:3.70417px;line-height:1.5;font-family:Roboto;-inkscape-font-specification:'Roboto Medium';text-align:center;text-anchor:middle;display:inline;fill:#808080;fill-opacity:0.319018;stroke:#000000;stroke-width:1.197"
       x="195.18846"
       y="168.72353"
       id="text1-2-0-8-0-5-1-7-2-6-3-1-0-5"><tspan
         style="font-style:normal;font-variant:normal;font-weight:normal;font-stretch:normal;font-size:3.70417px;font-family:Roboto;-inkscape-font-specification:Roboto;text-align:center;text-anchor:middle;fill:#808080;fill-opacity:1;stroke:none;stroke-width:1.197"
         x="195.18846"
         y="168.72353"
         id="tspan11-6-1-7-3-7-4">ML</tspan></text><rect
       style="display:inline;fill:url(#linearGradient43);fill-opacity:1;stroke:none;stroke-width:0.0508527;stroke-dasharray:none;stroke-dashoffset:0;stroke-opacity:1"
       id="rect43-1-6"
       width="36.255112"
       height="2.1166666"
       x="35.370892"
       y="179.41354" /><rect
       style="display:inline;fill:url(#linearGradient41);stroke:none;stroke-width:0.0563075;stroke-dasharray:none;stroke-dashoffset:0;stroke-opacity:1"
       id="rect43-1-6-9"
       width="44.450214"
       height="2.1166666"
       x="73.742546"
       y="179.41354" /><rect
       style="display:inline;fill:url(#linearGradient45);fill-opacity:1;stroke:none;stroke-width:0.0645019;stroke-dasharray:none;stroke-dashoffset:0;stroke-opacity:1"
       id="rect43-1-6-2"
       width="58.329285"
       height="2.1166666"
       x="120.30948"
       y="179.41354" /><text
       xml:space="preserve"
       style="font-style:normal;font-variant:normal;font-weight:500;font-stretch:normal;font-size:3.70417px;line-height:1.5;font-family:Roboto;-inkscape-font-specification:'Roboto Medium';text-align:start;text-anchor:start;white-space:pre;inline-size:36.2383;display:inline;fill:#808080;fill-opacity:0.319018;stroke:#000000;stroke-width:1.197"
       x="33.329494"
       y="187.01665"
       id="text1-2-0-8-0-5-1-7-2-6-3-1-3-5-0-7-8"
       transform="translate(2.0048253,-0.55366159)"><tspan
         x="33.329494"
         y="187.01665"
         id="tspan17"><tspan
           style="font-weight:normal;-inkscape-font-specification:Roboto;fill-opacity:1;stroke:none"
           id="tspan6">&quot;Landing zone&quot; for </tspan></tspan><tspan
         x="33.329494"
         y="192.57291"
         id="tspan24"><tspan
           style="font-weight:normal;-inkscape-font-specification:Roboto;fill-opacity:1;stroke:none"
           id="tspan18">raw data, no schema </tspan></tspan><tspan
         x="33.329494"
         y="198.12917"
         id="tspan26"><tspan
           style="font-weight:normal;-inkscape-font-specification:Roboto;fill-opacity:1;stroke:none"
           id="tspan25">needed</tspan></tspan></text><text
       xml:space="preserve"
       style="font-style:normal;font-variant:normal;font-weight:500;font-stretch:normal;font-size:3.70417px;line-height:1.5;font-family:Roboto;-inkscape-font-specification:'Roboto Medium';text-align:start;text-anchor:start;white-space:pre;inline-size:44.5687;display:inline;fill:#808080;fill-opacity:0.319018;stroke:#000000;stroke-width:1.197"
       x="71.565903"
       y="187.01665"
       id="text1-2-0-8-0-5-1-7-2-6-3-1-3-5-0-7-8-9"
       transform="translate(2.0048253,-0.55366159)"><tspan
         x="71.565903"
         y="187.01665"
         id="tspan28"><tspan
           style="font-weight:normal;-inkscape-font-specification:Roboto;fill-opacity:1;stroke:none"
           id="tspan27">Define structure, enforce </tspan></tspan><tspan
         x="71.565903"
         y="192.57291"
         id="tspan30"><tspan
           style="font-weight:normal;-inkscape-font-specification:Roboto;fill-opacity:1;stroke:none"
           id="tspan29">schema, evolve schema as </tspan></tspan><tspan
         x="71.565903"
         y="198.12917"
         id="tspan32"><tspan
           style="font-weight:normal;-inkscape-font-specification:Roboto;fill-opacity:1;stroke:none"
           id="tspan31">needed</tspan></tspan></text><text
       xml:space="preserve"
       style="font-style:normal;font-variant:normal;font-weight:500;font-stretch:normal;font-size:3.70417px;line-height:1.5;font-family:Roboto;-inkscape-font-specification:'Roboto Medium';text-align:start;text-anchor:start;white-space:pre;inline-size:58.4477;display:inline;fill:#808080;fill-opacity:0.319018;stroke:#000000;stroke-width:1.197"
       x="118.13284"
       y="186.97865"
       id="text1-2-0-8-0-5-1-7-2-6-3-1-3-5-0-7-8-9-1"
       transform="translate(2.0048253,-0.55366159)"><tspan
         x="118.13284"
         y="186.97865"
         id="tspan34"><tspan
           style="font-weight:normal;-inkscape-font-specification:Roboto;fill-opacity:1;stroke:none"
           id="tspan33">Deliver continuously updated, clean </tspan></tspan><tspan
         x="118.13284"
         y="192.53492"
         id="tspan36"><tspan
           style="font-weight:normal;-inkscape-font-specification:Roboto;fill-opacity:1;stroke:none"
           id="tspan35">data to downstream users and </tspan></tspan><tspan
         x="118.13284"
         y="198.09118"
         id="tspan39"><tspan
           style="font-weight:normal;-inkscape-font-specification:Roboto;fill-opacity:1;stroke:none"
           id="tspan38">apps</tspan></tspan></text></g></svg>
