<svg viewBox="0 0 198 35" fill="none" xmlns="http://www.w3.org/2000/svg" width="252" height="auto">
    <path d="M38.7751 18.3282H21.1957C21.4252 20.4127 22.4295 22.3349 24.0097 23.7136C25.6239 25.1046 27.7021 25.8376 29.8317 25.7675C31.2043 25.7561 32.5673 25.5381 33.8749 25.1206C35.1131 24.7987 36.281 24.2504 37.3196 23.5034C37.5093 23.334 37.7464 23.2268 37.9989 23.1961C38.1057 23.1997 38.2105 23.2244 38.3077 23.2688C38.4048 23.3133 38.4923 23.3764 38.5649 23.4548C38.6484 23.5336 38.7146 23.629 38.7592 23.7348C38.8037 23.8407 38.8255 23.9546 38.8235 24.0694C38.8162 24.1974 38.7823 24.3226 38.7238 24.4368C38.6653 24.5509 38.5836 24.6517 38.484 24.7325C37.4767 25.6252 36.2834 26.2826 34.9907 26.657C33.3351 27.2487 31.5898 27.5496 29.8317 27.5465C28.4662 27.5843 27.107 27.3476 25.8346 26.8503C24.5623 26.353 23.4029 25.6053 22.4248 24.6516C21.4702 23.7477 20.7131 22.6561 20.2009 21.4454C19.6888 20.2347 19.4327 18.9311 19.449 17.6166C19.4362 16.404 19.6771 15.2022 20.1561 14.0881C20.6352 12.9741 21.3419 11.9725 22.2308 11.1476C23.1422 10.2635 24.2211 9.57061 25.4043 9.10957C26.5874 8.64854 27.8507 8.42873 29.1201 8.46303C30.4096 8.4198 31.6943 8.64301 32.8937 9.11885C34.093 9.5947 35.1813 10.3129 36.0905 11.2285C36.9967 12.1675 37.7022 13.2813 38.1637 14.5019C38.6253 15.7226 38.8334 17.0245 38.7751 18.3282ZM37.0284 16.5815C36.7271 14.7557 35.7662 13.1041 34.3277 11.94C32.8373 10.7926 31.0091 10.1704 29.1281 10.1704C27.2472 10.1704 25.4191 10.7926 23.9288 11.94C22.4915 13.1121 21.5314 14.7682 21.2281 16.5977L37.0284 16.5815Z" fill="#1E1C1C"/>
    <path d="M50.5653 0.425459V25.7676H57.3417C57.6602 25.7416 57.9784 25.8212 58.2472 25.9941C58.3358 26.0732 58.4063 26.1706 58.4537 26.2794C58.5012 26.3883 58.5245 26.5061 58.5222 26.6248C58.5233 26.741 58.4992 26.8561 58.4518 26.9621C58.4043 27.0682 58.3345 27.1627 58.2472 27.2394C57.9843 27.4265 57.6629 27.5125 57.3417 27.4819H42.0748C41.7586 27.513 41.4421 27.4267 41.1854 27.2394C41.1003 27.1619 41.0329 27.0668 40.9882 26.9606C40.9435 26.8545 40.9225 26.7399 40.9266 26.6248C40.9212 26.5072 40.9416 26.3898 40.9863 26.2808C41.0309 26.1719 41.099 26.074 41.1854 25.9941C41.4483 25.8213 41.7613 25.7416 42.0748 25.7676H48.8512V2.17211H43.8701C43.5544 2.19741 43.2397 2.11156 42.9806 1.92948C42.8924 1.84658 42.8224 1.7463 42.7751 1.63494C42.7277 1.52358 42.7041 1.40364 42.7056 1.28264C42.7045 1.16647 42.7286 1.05141 42.776 0.945357C42.8235 0.839308 42.8933 0.744758 42.9806 0.668085C43.2365 0.479333 43.5538 0.392794 43.8701 0.425459H50.5653Z" fill="#1E1C1C"/>
    <path d="M80.9042 18.3281H63.3247C63.5422 20.4126 64.542 22.3372 66.1225 23.7136C67.7375 25.1031 69.8153 25.836 71.9448 25.7674C73.3174 25.7573 74.6806 25.5392 75.9879 25.1205C77.2261 24.7986 78.394 24.2503 79.4326 23.5033C79.6223 23.3339 79.8592 23.2267 80.1117 23.196C80.2212 23.1975 80.3293 23.2211 80.4294 23.2656C80.5294 23.3101 80.6194 23.3744 80.6939 23.4547C80.8521 23.6199 80.9393 23.8406 80.9365 24.0693C80.9293 24.1958 80.8971 24.3195 80.8416 24.4333C80.786 24.5472 80.7084 24.6489 80.6132 24.7324C79.5993 25.6245 78.4009 26.2817 77.1037 26.6569C75.4485 27.2499 73.703 27.5508 71.9448 27.5464C70.5793 27.5833 69.2203 27.3461 67.948 26.8488C66.6758 26.3516 65.5162 25.6045 64.5377 24.6515C63.5852 23.7469 62.8306 22.6547 62.3213 21.4439C61.8119 20.2331 61.5588 18.93 61.5782 17.6165C61.5624 16.4035 61.802 15.2008 62.2812 14.0863C62.7604 12.9718 63.4685 11.9706 64.3598 11.1475C65.2712 10.2635 66.3503 9.57054 67.5335 9.1095C68.7166 8.64847 69.9799 8.42866 71.2493 8.46296C72.5364 8.42002 73.8185 8.64349 75.0152 9.11938C76.2119 9.59527 77.2974 10.3132 78.2035 11.2284C79.108 12.1693 79.8133 13.2831 80.2774 14.503C80.7414 15.723 80.9546 17.0239 80.9042 18.3281ZM79.1576 16.5815C78.8563 14.7557 77.8952 13.104 76.4567 11.94C74.9823 10.7564 73.1397 10.127 71.2493 10.161C69.3642 10.1123 67.5236 10.7372 66.058 11.9238C64.6112 13.0901 63.6441 14.748 63.3409 16.5815H79.1576Z" fill="#1E1C1C"/>
    <path d="M100.747 10.161C100.718 9.85499 100.805 9.54912 100.99 9.3038C101.07 9.21656 101.168 9.1469 101.276 9.09927C101.385 9.05164 101.502 9.02712 101.621 9.02712C101.739 9.02712 101.856 9.05164 101.965 9.09927C102.074 9.1469 102.171 9.21656 102.251 9.3038C102.439 9.56044 102.525 9.87704 102.494 10.1933V13.1528C102.525 13.4691 102.439 13.7857 102.251 14.0423C102.169 14.13 102.068 14.1987 101.957 14.2434C101.845 14.2881 101.725 14.3078 101.605 14.3011C101.497 14.3058 101.39 14.288 101.29 14.249C101.189 14.21 101.098 14.1507 101.022 14.0747C100.85 13.8708 100.753 13.6138 100.747 13.3469C100.704 12.9323 100.566 12.5332 100.345 12.18C100.123 11.8268 99.8239 11.5289 99.4697 11.3092C98.1366 10.4875 96.5865 10.0873 95.0223 10.161C93.4385 10.0673 91.8656 10.4746 90.5265 11.3254C90.1796 11.5314 89.8879 11.8186 89.6766 12.1623C89.4653 12.506 89.3408 12.8959 89.3135 13.2984C89.34 13.7404 89.4884 14.1663 89.7425 14.5289C89.9966 14.8915 90.3465 15.1765 90.7529 15.3523C91.9328 15.8763 93.1992 16.178 94.4886 16.2418C96.1737 16.3683 97.8421 16.6607 99.4697 17.1151C100.629 17.4851 101.66 18.1745 102.446 19.1043C103.069 19.8919 103.41 20.8655 103.416 21.8698C103.398 22.6411 103.197 23.397 102.828 24.0749C102.46 24.7527 101.935 25.3329 101.297 25.7673C99.4872 27.0258 97.3027 27.6304 95.1032 27.4816C92.6993 27.5857 90.3335 26.8543 88.4078 25.4116C88.4503 25.712 88.4503 26.0168 88.4078 26.3172C88.3498 26.463 88.2482 26.5873 88.1168 26.673C87.972 26.7645 87.8027 26.8097 87.6315 26.8024C87.5165 26.8065 87.4019 26.7855 87.2957 26.7408C87.1896 26.6961 87.0945 26.6289 87.017 26.5437C86.8239 26.2893 86.7317 25.9725 86.7582 25.6542V22.1124C86.7271 21.7962 86.8134 21.4795 87.0008 21.2229C87.0807 21.1364 87.1787 21.0685 87.2876 21.0238C87.3966 20.9791 87.5139 20.9588 87.6315 20.9642C87.7488 20.9618 87.8652 20.9836 87.9737 21.0281C88.0822 21.0726 88.1805 21.1389 88.2623 21.2229C88.3463 21.314 88.4111 21.4211 88.4528 21.5378C88.4945 21.6546 88.5122 21.7785 88.5049 21.9022C88.4774 22.4808 88.6485 23.0515 88.99 23.5194C89.5879 24.2569 90.3767 24.8162 91.2703 25.1367C92.5007 25.5944 93.807 25.8139 95.1194 25.7835C96.8828 25.9146 98.6414 25.4722 100.133 24.5221C100.591 24.2411 100.976 23.8558 101.257 23.3977C101.538 22.9396 101.707 22.4217 101.75 21.886C101.742 21.3504 101.586 20.8275 101.301 20.3741C101.016 19.9207 100.612 19.5542 100.133 19.3145C98.6192 18.5608 96.969 18.1208 95.2811 18.0208C93.7166 17.9155 92.1697 17.6279 90.672 17.1637C89.8019 16.8493 89.043 16.2871 88.4887 15.5464C87.9871 14.8796 87.7148 14.0682 87.7125 13.2337C87.7145 12.5037 87.9199 11.7887 88.3055 11.1688C88.6912 10.5489 89.2418 10.0487 89.8957 9.7243C91.4714 8.81506 93.2686 8.36154 95.087 8.41433C97.1152 8.35306 99.1063 8.96748 100.747 10.161Z" fill="#1E1C1C"/>
    <path d="M132.026 18.3763C131.986 19.6383 131.688 20.8786 131.151 22.0214C130.614 23.1643 129.85 24.1857 128.905 25.0232C126.812 26.7154 124.17 27.5788 121.482 27.449C119.993 27.5196 118.507 27.2505 117.137 26.6621C115.767 26.0737 114.548 25.1814 113.574 24.0528C111.516 21.4053 110.487 18.1015 110.679 14.7536V13.1364C110.638 10.8511 111.09 8.5839 112.005 6.48952C112.807 4.66929 114.137 3.13141 115.822 2.07448C117.539 0.992383 119.533 0.430687 121.563 0.457237C124.211 0.332003 126.811 1.19674 128.857 2.8831C130.785 4.6414 131.946 7.08606 132.091 9.69163H126.69C126.694 8.33548 126.192 7.0266 125.283 6.02056C124.245 5.18083 122.926 4.76994 121.595 4.87228C120.812 4.82322 120.029 4.97583 119.321 5.31558C118.613 5.65533 118.004 6.17091 117.552 6.81299C116.53 8.64037 116.053 10.7227 116.178 12.813V14.786C116.022 16.931 116.47 19.0767 117.471 20.9801C117.911 21.6363 118.517 22.1644 119.227 22.5109C119.937 22.8574 120.726 23.0099 121.514 22.953C122.86 23.0548 124.194 22.6448 125.25 21.8049C126.155 20.8539 126.658 19.5914 126.657 18.2792L132.026 18.3763Z" fill="#1E1C1C"/>
    <path d="M136.295 17.5355C136.26 15.8078 136.631 14.096 137.379 12.5382C138.048 11.1288 139.124 9.95178 140.468 9.15818C141.897 8.33599 143.525 7.92204 145.174 7.96144C146.312 7.9167 147.447 8.0996 148.514 8.4995C149.58 8.8994 150.556 9.50827 151.384 10.2903C153.045 11.9837 154.004 14.2425 154.069 16.6136V17.8912C154.188 20.4278 153.325 22.913 151.659 24.8293C149.917 26.494 147.6 27.423 145.19 27.423C142.78 27.423 140.463 26.494 138.721 24.8293C137.024 22.8658 136.154 20.3209 136.295 17.7295V17.5355ZM141.309 17.8912C141.219 19.3275 141.574 20.7565 142.327 21.9829C142.664 22.4223 143.098 22.7782 143.594 23.0232C144.09 23.2682 144.636 23.3956 145.19 23.3956C145.743 23.3956 146.29 23.2682 146.786 23.0232C147.282 22.7782 147.716 22.4223 148.052 21.9829C148.845 20.6296 149.206 19.0669 149.087 17.5031C149.167 16.0708 148.806 14.6484 148.052 13.4276C147.733 12.9641 147.302 12.589 146.798 12.3373C146.295 12.0856 145.736 11.9656 145.174 11.9884C144.615 11.9619 144.06 12.0805 143.561 12.3328C143.062 12.585 142.637 12.9622 142.327 13.4276C141.544 14.7781 141.189 16.3345 141.309 17.8912Z" fill="#1E1C1C"/>
    <path d="M158.386 17.5355C158.357 15.8101 158.722 14.1008 159.454 12.5382C160.134 11.1309 161.214 9.95539 162.559 9.15817C163.988 8.33442 165.616 7.92036 167.265 7.96143C168.403 7.9176 169.538 8.10092 170.605 8.50077C171.671 8.90063 172.647 9.50901 173.475 10.2903C175.136 11.9837 176.095 14.2425 176.16 16.6136V17.8912C176.282 20.431 175.412 22.9189 173.734 24.8293C171.996 26.5014 169.677 27.4355 167.265 27.4355C164.853 27.4355 162.535 26.5014 160.796 24.8293C159.099 22.8658 158.23 20.3209 158.37 17.7295L158.386 17.5355ZM163.4 17.8912C163.313 19.325 163.663 20.7515 164.402 21.9829C164.727 22.4437 165.163 22.8154 165.668 23.0641C166.174 23.3127 166.734 23.4304 167.297 23.4061C167.852 23.4284 168.403 23.3113 168.9 23.0654C169.397 22.8196 169.825 22.453 170.144 21.9991C170.93 20.6436 171.285 19.0813 171.163 17.5193C171.246 16.0887 170.891 14.6668 170.144 13.4438C169.824 12.9814 169.392 12.6071 168.889 12.3555C168.386 12.104 167.827 11.9833 167.265 12.0045C166.704 11.9752 166.145 12.0924 165.643 12.3448C165.141 12.5972 164.714 12.976 164.402 13.4438C163.636 14.7947 163.287 16.3422 163.4 17.8912Z" fill="#1E1C1C"/>
    <path d="M197.977 17.8751C198.107 20.3476 197.413 22.7933 196.004 24.8293C195.4 25.6688 194.598 26.3468 193.671 26.8037C192.743 27.2605 191.717 27.4822 190.683 27.4492C189.816 27.4779 188.953 27.3145 188.156 26.9706C187.359 26.6267 186.648 26.1108 186.074 25.46V34.3225H181.061V8.30103H185.718L185.896 10.1447C186.467 9.43889 187.193 8.87452 188.018 8.49578C188.842 8.11704 189.743 7.93422 190.651 7.96147C191.693 7.91381 192.731 8.12343 193.673 8.57189C194.615 9.02034 195.432 9.69379 196.052 10.5328C197.449 12.6208 198.125 15.1085 197.977 17.6164V17.8751ZM192.963 17.5031C193.049 16.093 192.723 14.6885 192.026 13.46C191.743 13.0034 191.344 12.6306 190.869 12.3804C190.394 12.1301 189.861 12.0115 189.325 12.0369C188.665 11.9708 188.001 12.1092 187.422 12.4332C186.844 12.7572 186.379 13.2511 186.09 13.8482V21.5463C186.386 22.1409 186.85 22.6347 187.426 22.9657C188.001 23.2966 188.662 23.4499 189.325 23.4061C191.75 23.4061 192.963 21.433 192.963 17.5031Z" fill="#1E1C1C"/>
    <path d="M15.6002 0.554518H0.0099656V4.17713C-0.0206591 4.49836 0.0654998 4.81987 0.252592 5.08278C0.330074 5.16797 0.425211 5.23521 0.531345 5.2799C0.637479 5.32459 0.752067 5.34561 0.867152 5.34149C0.984783 5.34689 1.10231 5.32657 1.21125 5.28187C1.32019 5.23718 1.41795 5.16923 1.4979 5.08278C1.68499 4.81987 1.77115 4.49836 1.74053 4.17713V2.2526H8.30643V25.7512H3.82683C3.51337 25.7251 3.20012 25.8048 2.93727 25.9775C2.85082 26.0575 2.78277 26.1553 2.73808 26.2643C2.69338 26.3732 2.67306 26.4906 2.67846 26.6083C2.67434 26.7234 2.69536 26.838 2.74005 26.9441C2.78474 27.0502 2.85208 27.1454 2.93727 27.2228C3.19392 27.4102 3.51061 27.4966 3.82683 27.4655H14.5168C14.833 27.4966 15.1495 27.4102 15.4062 27.2228C15.4913 27.1454 15.5587 27.0502 15.6034 26.9441C15.6481 26.838 15.6691 26.7234 15.665 26.6083C15.6704 26.4906 15.65 26.3732 15.6053 26.2643C15.5607 26.1553 15.4926 26.0575 15.4062 25.9775C15.1433 25.8048 14.8303 25.7251 14.5168 25.7512H10.037V2.26879H16.506V4.17713C16.4753 4.49836 16.5615 4.81987 16.7486 5.08278C16.8261 5.16797 16.9212 5.23521 17.0273 5.2799C17.1335 5.32459 17.2481 5.34561 17.3631 5.34149C17.4808 5.34689 17.5981 5.32657 17.7071 5.28187C17.816 5.23718 17.9139 5.16923 17.9939 5.08278C18.1668 4.81394 18.2462 4.49568 18.2201 4.17713V0.53833L15.6002 0.554518Z" fill="#1E1C1C"/>
</svg>
