<svg data-name="Calque 2" xmlns="http://www.w3.org/2000/svg" viewBox="0 0 229.1 44.335" width="165" height="auto">
  <g data-name="Calque 1">
    <g>
      <g>
        <path d="M0,39.504h10.288l-.342-5.968v-10.515l.342-5.968H0v-3.979h15.062v20.462l-.341,5.968h10.288v4.263H0v-4.263ZM9.663,3.126h5.684v5.4h-5.684V3.126Z" fill="#2b2d2b"/>
        <path d="M33.257,35.411c0-5.968,3.921-8.81,8.355-8.81,3.182,0,6.82,2.046,9.151,5.228h1.307l-.909-8.242c0-5.684-2.217-7.105-5.002-7.105-4.66,0-5.343,3.922-5.343,7.105h-5.116c0-7.389,4.036-11.083,10.459-11.083s10.061,3.751,10.118,11.083v11.937c0,3.07.795,3.979,3.694,3.979v4.263c-4.888,0-5.968-1.648-5.968-8.242h-1.705c-1.136,4.604-5.456,8.81-10.061,8.81-5.399,0-8.98-4.263-8.98-8.924ZM42.237,40.072c2.729,0,6.253-1.875,7.674-6.764-2.501-2.387-5.116-3.411-6.935-3.411-2.899,0-4.718,1.876-4.718,5.514,0,3.183,1.422,4.66,3.979,4.66Z" fill="#2b2d2b"/>
        <path d="M104.887,23.077l.342-5.968v-.057h-3.468v-3.979h7.106l-1.705,8.242h1.705c1.477-6.821,5.513-8.81,10.231-8.81,6.309,0,8.811,5.343,8.811,13.585,0,.568,0,1.08-.057,1.592h-5.059v-1.592c0-6.082-1.137-9.549-4.661-9.549-4.036,0-8.128,4.035-8.128,11.765v15.461h-5.116v-20.689Z" fill="#2b2d2b"/>
        <path d="M141.555,35.525h-1.705l1.705,8.242h-3.979V0h5.116v7.56l-2.842,13.755h1.705c1.478-6.821,4.946-9.208,9.663-9.208,6.309,0,10.515,4.263,10.515,16.314,0,10.97-4.775,15.915-10.515,15.915-3.695,0-8.185-2.046-9.663-8.81ZM150.252,40.3c3.296,0,6.423-2.615,6.366-11.88-.056-8.981-2.841-12.278-6.366-12.278-3.922,0-7.56,4.15-7.56,12.278s3.638,11.88,7.56,11.88Z" fill="#2b2d2b"/>
        <path d="M173.107,23.077l.342-5.968v-.057h-3.468v-3.979h7.106l-1.705,8.242h1.705c1.477-6.821,5.513-8.81,10.231-8.81,6.309,0,8.811,5.343,8.811,13.585,0,.568,0,1.08-.057,1.592h-5.059v-1.592c0-6.082-1.137-9.549-4.661-9.549-4.036,0-8.128,4.035-8.128,11.765v15.461h-5.116v-20.689Z" fill="#2b2d2b"/>
        <path d="M205.228,28.534c0-10.516,5.229-16.029,12.505-16.029,7.218,0,11.368,5.399,11.368,12.448v4.263h-19.382l1.421,4.263c.398,3.979,2.16,6.593,6.594,6.593,3.751,0,5.399-1.933,5.854-5.684h5.229c-1.023,6.594-4.831,9.947-11.083,9.947-7.276,0-12.505-5.286-12.505-15.801ZM225.122,25.521l-1.422-4.262c-.624-2.388-2.102-4.775-5.968-4.775-3.297,0-5.628,1.762-6.594,4.775l-1.421,4.262h15.404Z" fill="#2b2d2b"/>
      </g>
      <path d="M78.732,23.294c-2.857,0-5.182,2.325-5.182,5.182s2.325,5.167,5.182,5.167,5.166-2.318,5.166-5.167-2.318-5.182-5.166-5.182Z" fill="#8aa08c"/>
    </g>
  </g>
</svg>