<svg data-name="Calque 2" xmlns="http://www.w3.org/2000/svg" viewBox="0 0 321.17 64.666" width="232" height="auto">
  <g data-name="Calque 1">
    <g>
      <g>
        <path d="M48.034,20.338c0-1.155-.937-2.094-2.089-2.094s-2.094.939-2.094,2.094.939,2.089,2.094,2.089,2.089-.937,2.089-2.089Z" fill="#2b2d2b" opacity=".1"/>
        <path d="M48.034,26.418c0-1.155-.937-2.094-2.089-2.094s-2.094.939-2.094,2.094.939,2.089,2.094,2.089,2.089-.937,2.089-2.089Z" fill="#2b2d2b" opacity=".1"/>
        <path d="M48.034,32.497c0-1.151-.937-2.088-2.089-2.088s-2.094.937-2.094,2.088.939,2.089,2.094,2.089,2.089-.937,2.089-2.089Z" fill="#8aa08c"/>
        <path d="M48.034,38.576c0-1.151-.937-2.088-2.089-2.088s-2.094.937-2.094,2.088.939,2.095,2.094,2.095,2.089-.939,2.089-2.095Z" fill="#2b2d2b" opacity=".1"/>
        <path d="M48.034,44.656c0-1.151-.937-2.088-2.089-2.088s-2.094.937-2.094,2.088.939,2.095,2.094,2.095,2.089-.939,2.089-2.095Z" fill="#2b2d2b" opacity=".1"/>
        <path d="M48.034,50.741c0-1.155-.937-2.094-2.089-2.094s-2.094.939-2.094,2.094.939,2.089,2.094,2.089,2.089-.937,2.089-2.089Z" fill="#2b2d2b" opacity=".1"/>
        <path d="M48.034,56.821c0-1.156-.937-2.095-2.089-2.095s-2.094.939-2.094,2.095.939,2.088,2.094,2.088,2.089-.937,2.089-2.088Z" fill="#2b2d2b" opacity=".1"/>
        <path d="M39.665,18.244c-1.156,0-2.095.939-2.095,2.094s.939,2.089,2.095,2.089,2.088-.937,2.088-2.089-.937-2.094-2.088-2.094Z" fill="#8aa08c"/>
        <path d="M39.665,24.324c-1.156,0-2.095.939-2.095,2.094s.939,2.089,2.095,2.089,2.088-.937,2.088-2.089-.937-2.094-2.088-2.094Z" fill="#8aa08c"/>
        <path d="M39.665,30.409c-1.156,0-2.095.937-2.095,2.088s.939,2.089,2.095,2.089,2.088-.937,2.088-2.089-.937-2.088-2.088-2.088Z" fill="#8aa08c"/>
        <path d="M39.665,36.489c-1.156,0-2.095.937-2.095,2.088s.939,2.095,2.095,2.095,2.088-.939,2.088-2.095-.937-2.088-2.088-2.088Z" fill="#8aa08c"/>
        <path d="M39.665,42.568c-1.156,0-2.095.937-2.095,2.088s.939,2.095,2.095,2.095,2.088-.939,2.088-2.095-.937-2.088-2.088-2.088Z" fill="#2b2d2b" opacity=".1"/>
        <path d="M39.665,48.647c-1.156,0-2.095.939-2.095,2.094s.939,2.089,2.095,2.089,2.088-.937,2.088-2.089-.937-2.094-2.088-2.094Z" fill="#2b2d2b" opacity=".1"/>
        <path d="M39.665,54.726c-1.156,0-2.095.939-2.095,2.095s.939,2.088,2.095,2.088,2.088-.937,2.088-2.088-.937-2.095-2.088-2.095Z" fill="#2b2d2b" opacity=".1"/>
        <path d="M35.473,20.338c0-1.155-.937-2.094-2.089-2.094s-2.094.939-2.094,2.094.939,2.089,2.094,2.089,2.089-.937,2.089-2.089Z" fill="#8aa08c"/>
        <path d="M35.473,26.418c0-1.155-.937-2.094-2.089-2.094s-2.094.939-2.094,2.094.939,2.089,2.094,2.089,2.089-.937,2.089-2.089Z" fill="#8aa08c"/>
        <path d="M35.473,32.497c0-1.151-.937-2.088-2.089-2.088s-2.094.937-2.094,2.088.939,2.089,2.094,2.089,2.089-.937,2.089-2.089Z" fill="#8aa08c"/>
        <path d="M35.473,38.576c0-1.151-.937-2.088-2.089-2.088s-2.094.937-2.094,2.088.939,2.095,2.094,2.095,2.089-.939,2.089-2.095Z" fill="#2b2d2b" opacity=".1"/>
        <path d="M35.473,44.656c0-1.151-.937-2.088-2.089-2.088s-2.094.937-2.094,2.088.939,2.095,2.094,2.095,2.089-.939,2.089-2.095Z" fill="#8aa08c"/>
        <path d="M35.473,50.741c0-1.155-.937-2.094-2.089-2.094s-2.094.939-2.094,2.094.939,2.089,2.094,2.089,2.089-.937,2.089-2.089Z" fill="#2b2d2b" opacity=".1"/>
        <path d="M35.473,56.821c0-1.156-.937-2.095-2.089-2.095s-2.094.939-2.094,2.095.939,2.088,2.094,2.088,2.089-.937,2.089-2.088Z" fill="#2b2d2b" opacity=".1"/>
        <path d="M27.105,18.244c-1.156,0-2.095.939-2.095,2.094s.939,2.089,2.095,2.089,2.088-.937,2.088-2.089-.937-2.094-2.088-2.094Z" fill="#8aa08c"/>
        <path d="M27.105,24.324c-1.156,0-2.095.939-2.095,2.094s.939,2.089,2.095,2.089,2.088-.937,2.088-2.089-.937-2.094-2.088-2.094Z" fill="#8aa08c"/>
        <path d="M27.105,30.409c-1.156,0-2.095.937-2.095,2.088s.939,2.089,2.095,2.089,2.088-.937,2.088-2.089-.937-2.088-2.088-2.088Z" fill="#8aa08c"/>
        <path d="M27.105,36.489c-1.156,0-2.095.937-2.095,2.088s.939,2.095,2.095,2.095,2.088-.939,2.088-2.095-.937-2.088-2.088-2.088Z" fill="#8aa08c"/>
        <path d="M27.105,42.568c-1.156,0-2.095.937-2.095,2.088s.939,2.095,2.095,2.095,2.088-.939,2.088-2.095-.937-2.088-2.088-2.088Z" fill="#8aa08c"/>
        <path d="M27.105,48.647c-1.156,0-2.095.939-2.095,2.094s.939,2.089,2.095,2.089,2.088-.937,2.088-2.089-.937-2.094-2.088-2.094Z" fill="#8aa08c"/>
        <path d="M27.105,54.726c-1.156,0-2.095.939-2.095,2.095s.939,2.088,2.095,2.088,2.088-.937,2.088-2.088-.937-2.095-2.088-2.095Z" fill="#8aa08c"/>
        <path d="M20.824,18.244c-1.155,0-2.094.939-2.094,2.094s.939,2.089,2.094,2.089,2.089-.937,2.089-2.089-.937-2.094-2.089-2.094Z" fill="#8aa08c"/>
        <path d="M20.824,24.324c-1.155,0-2.094.939-2.094,2.094s.939,2.089,2.094,2.089,2.089-.937,2.089-2.089-.937-2.094-2.089-2.094Z" fill="#8aa08c"/>
        <path d="M20.824,30.409c-1.155,0-2.094.937-2.094,2.088s.939,2.089,2.094,2.089,2.089-.937,2.089-2.089-.937-2.088-2.089-2.088Z" fill="#8aa08c"/>
        <path d="M20.824,36.489c-1.155,0-2.094.937-2.094,2.088s.939,2.095,2.094,2.095,2.089-.939,2.089-2.095-.937-2.088-2.089-2.088Z" fill="#2b2d2b" opacity=".1"/>
        <path d="M20.824,42.568c-1.155,0-2.094.937-2.094,2.088s.939,2.095,2.094,2.095,2.089-.939,2.089-2.095-.937-2.088-2.089-2.088Z" fill="#8aa08c"/>
        <path d="M20.824,48.647c-1.155,0-2.094.939-2.094,2.094s.939,2.089,2.094,2.089,2.089-.937,2.089-2.089-.937-2.094-2.089-2.094Z" fill="#2b2d2b" opacity=".1"/>
        <path d="M20.824,54.726c-1.155,0-2.094.939-2.094,2.095s.939,2.088,2.094,2.088,2.089-.937,2.089-2.088-.937-2.095-2.089-2.095Z" fill="#2b2d2b" opacity=".1"/>
        <path d="M14.545,18.244c-1.156,0-2.095.939-2.095,2.094s.939,2.089,2.095,2.089,2.088-.937,2.088-2.089-.937-2.094-2.088-2.094Z" fill="#8aa08c"/>
        <path d="M14.545,24.324c-1.156,0-2.095.939-2.095,2.094s.939,2.089,2.095,2.089,2.088-.937,2.088-2.089-.937-2.094-2.088-2.094Z" fill="#8aa08c"/>
        <path d="M14.545,30.409c-1.156,0-2.095.937-2.095,2.088s.939,2.089,2.095,2.089,2.088-.937,2.088-2.089-.937-2.088-2.088-2.088Z" fill="#8aa08c"/>
        <path d="M14.545,36.489c-1.156,0-2.095.937-2.095,2.088s.939,2.095,2.095,2.095,2.088-.939,2.088-2.095-.937-2.088-2.088-2.088Z" fill="#8aa08c"/>
        <path d="M14.545,42.568c-1.156,0-2.095.937-2.095,2.088s.939,2.095,2.095,2.095,2.088-.939,2.088-2.095-.937-2.088-2.088-2.088Z" fill="#2b2d2b" opacity=".1"/>
        <path d="M14.545,48.647c-1.156,0-2.095.939-2.095,2.094s.939,2.089,2.095,2.089,2.088-.937,2.088-2.089-.937-2.094-2.088-2.094Z" fill="#2b2d2b" opacity=".1"/>
        <path d="M14.545,54.726c-1.156,0-2.095.939-2.095,2.095s.939,2.088,2.095,2.088,2.088-.937,2.088-2.088-.937-2.095-2.088-2.095Z" fill="#2b2d2b" opacity=".1"/>
        <path d="M10.353,20.338c0-1.155-.939-2.094-2.095-2.094s-2.088.939-2.088,2.094.937,2.089,2.088,2.089,2.095-.937,2.095-2.089Z" fill="#2b2d2b" opacity=".1"/>
        <path d="M10.353,26.418c0-1.155-.939-2.094-2.095-2.094s-2.088.939-2.088,2.094.937,2.089,2.088,2.089,2.095-.937,2.095-2.089Z" fill="#2b2d2b" opacity=".1"/>
        <path d="M10.353,32.497c0-1.151-.939-2.088-2.095-2.088s-2.088.937-2.088,2.088.937,2.089,2.088,2.089,2.095-.937,2.095-2.089Z" fill="#8aa08c"/>
        <path d="M10.353,38.576c0-1.151-.939-2.088-2.095-2.088s-2.088.937-2.088,2.088.937,2.095,2.088,2.095,2.095-.939,2.095-2.095Z" fill="#2b2d2b" opacity=".1"/>
        <path d="M10.353,44.656c0-1.151-.939-2.088-2.095-2.088s-2.088.937-2.088,2.088.937,2.095,2.088,2.095,2.095-.939,2.095-2.095Z" fill="#2b2d2b" opacity=".1"/>
        <path d="M10.353,50.741c0-1.155-.939-2.094-2.095-2.094s-2.088.939-2.088,2.094.937,2.089,2.088,2.089,2.095-.937,2.095-2.089Z" fill="#2b2d2b" opacity=".1"/>
        <path d="M10.353,56.821c0-1.156-.939-2.095-2.095-2.095s-2.088.939-2.088,2.095.937,2.088,2.088,2.088,2.095-.937,2.095-2.088Z" fill="#2b2d2b" opacity=".1"/>
        <path d="M48.034,2.088c0-1.151-.937-2.088-2.089-2.088s-2.094.937-2.094,2.088.939,2.095,2.094,2.095,2.089-.939,2.089-2.095Z" fill="#2b2d2b" opacity=".1"/>
        <path d="M48.034,8.173c0-1.155-.937-2.094-2.089-2.094s-2.094.939-2.094,2.094.939,2.089,2.094,2.089,2.089-.937,2.089-2.089Z" fill="#2b2d2b" opacity=".1"/>
        <path d="M48.034,14.253c0-1.155-.937-2.094-2.089-2.094s-2.094.939-2.094,2.094.939,2.089,2.094,2.089,2.089-.937,2.089-2.089Z" fill="#2b2d2b" opacity=".1"/>
        <path d="M39.665,0c-1.156,0-2.095.937-2.095,2.088s.939,2.095,2.095,2.095,2.088-.939,2.088-2.095-.937-2.088-2.088-2.088Z" fill="#2b2d2b" opacity=".1"/>
        <path d="M39.665,6.079c-1.156,0-2.095.939-2.095,2.094s.939,2.089,2.095,2.089,2.088-.937,2.088-2.089-.937-2.094-2.088-2.094Z" fill="#2b2d2b" opacity=".1"/>
        <path d="M39.665,12.159c-1.156,0-2.095.939-2.095,2.094s.939,2.089,2.095,2.089,2.088-.937,2.088-2.089-.937-2.094-2.088-2.094Z" fill="#2b2d2b" opacity=".1"/>
        <path d="M35.473,2.088c0-1.151-.937-2.088-2.089-2.088s-2.094.937-2.094,2.088.939,2.095,2.094,2.095,2.089-.939,2.089-2.095Z" fill="#2b2d2b" opacity=".1"/>
        <path d="M35.473,8.173c0-1.155-.937-2.094-2.089-2.094s-2.094.939-2.094,2.094.939,2.089,2.094,2.089,2.089-.937,2.089-2.089Z" fill="#2b2d2b" opacity=".1"/>
        <path d="M35.473,14.253c0-1.155-.937-2.094-2.089-2.094s-2.094.939-2.094,2.094.939,2.089,2.094,2.089,2.089-.937,2.089-2.089Z" fill="#8aa08c"/>
        <path d="M27.105,0c-1.156,0-2.095.937-2.095,2.088s.939,2.095,2.095,2.095,2.088-.939,2.088-2.095-.937-2.088-2.088-2.088Z" fill="#2b2d2b" opacity=".1"/>
        <path d="M27.105,6.079c-1.156,0-2.095.939-2.095,2.094s.939,2.089,2.095,2.089,2.088-.937,2.088-2.089-.937-2.094-2.088-2.094Z" fill="#8aa08c"/>
        <path d="M27.105,12.159c-1.156,0-2.095.939-2.095,2.094s.939,2.089,2.095,2.089,2.088-.937,2.088-2.089-.937-2.094-2.088-2.094Z" fill="#8aa08c"/>
        <path d="M20.824,0c-1.155,0-2.094.937-2.094,2.088s.939,2.095,2.094,2.095,2.089-.939,2.089-2.095-.937-2.088-2.089-2.088Z" fill="#2b2d2b" opacity=".1"/>
        <path d="M20.824,6.079c-1.155,0-2.094.939-2.094,2.094s.939,2.089,2.094,2.089,2.089-.937,2.089-2.089-.937-2.094-2.089-2.094Z" fill="#2b2d2b" opacity=".1"/>
        <path d="M20.824,12.159c-1.155,0-2.094.939-2.094,2.094s.939,2.089,2.094,2.089,2.089-.937,2.089-2.089-.937-2.094-2.089-2.094Z" fill="#8aa08c"/>
        <path d="M14.545,0c-1.156,0-2.095.937-2.095,2.088s.939,2.095,2.095,2.095,2.088-.939,2.088-2.095-.937-2.088-2.088-2.088Z" fill="#2b2d2b" opacity=".1"/>
        <path d="M14.545,6.079c-1.156,0-2.095.939-2.095,2.094s.939,2.089,2.095,2.089,2.088-.937,2.088-2.089-.937-2.094-2.088-2.094Z" fill="#2b2d2b" opacity=".1"/>
        <path d="M14.545,12.159c-1.156,0-2.095.939-2.095,2.094s.939,2.089,2.095,2.089,2.088-.937,2.088-2.089-.937-2.094-2.088-2.094Z" fill="#2b2d2b" opacity=".1"/>
        <path d="M10.353,2.088c0-1.151-.939-2.088-2.095-2.088s-2.088.937-2.088,2.088.937,2.095,2.088,2.095,2.095-.939,2.095-2.095Z" fill="#2b2d2b" opacity=".1"/>
        <path d="M10.353,8.173c0-1.155-.939-2.094-2.095-2.094s-2.088.939-2.088,2.094.937,2.089,2.088,2.089,2.095-.937,2.095-2.089Z" fill="#2b2d2b" opacity=".1"/>
        <path d="M10.353,14.253c0-1.155-.939-2.094-2.095-2.094s-2.088.939-2.088,2.094.937,2.089,2.088,2.089,2.095-.937,2.095-2.089Z" fill="#2b2d2b" opacity=".1"/>
        <path d="M51.994,18.244c-1.156,0-2.095.939-2.095,2.094s.939,2.089,2.095,2.089,2.088-.937,2.088-2.089-.937-2.094-2.088-2.094Z" fill="#2b2d2b" opacity=".1"/>
        <path d="M51.994,24.324c-1.156,0-2.095.939-2.095,2.094s.939,2.089,2.095,2.089,2.088-.937,2.088-2.089-.937-2.094-2.088-2.094Z" fill="#2b2d2b" opacity=".1"/>
        <path d="M51.994,30.409c-1.156,0-2.095.937-2.095,2.088s.939,2.089,2.095,2.089,2.088-.937,2.088-2.089-.937-2.088-2.088-2.088Z" fill="#2b2d2b" opacity=".1"/>
        <path d="M51.994,36.489c-1.156,0-2.095.937-2.095,2.088s.939,2.095,2.095,2.095,2.088-.939,2.088-2.095-.937-2.088-2.088-2.088Z" fill="#2b2d2b" opacity=".1"/>
        <path d="M51.994,42.568c-1.156,0-2.095.937-2.095,2.088s.939,2.095,2.095,2.095,2.088-.939,2.088-2.095-.937-2.088-2.088-2.088Z" fill="#2b2d2b" opacity=".1"/>
        <path d="M51.994,48.647c-1.156,0-2.095.939-2.095,2.094s.939,2.089,2.095,2.089,2.088-.937,2.088-2.089-.937-2.094-2.088-2.094Z" fill="#2b2d2b" opacity=".1"/>
        <path d="M51.994,54.726c-1.156,0-2.095.939-2.095,2.095s.939,2.088,2.095,2.088,2.088-.937,2.088-2.088-.937-2.095-2.088-2.095Z" fill="#2b2d2b" opacity=".1"/>
        <path d="M49.899,2.088c0,1.156.939,2.095,2.095,2.095s2.088-.939,2.088-2.095-.937-2.088-2.088-2.088-2.095.937-2.095,2.088Z" fill="#2b2d2b" opacity=".1"/>
        <path d="M51.994,6.079c-1.156,0-2.095.939-2.095,2.094s.939,2.089,2.095,2.089,2.088-.937,2.088-2.089-.937-2.094-2.088-2.094Z" fill="#2b2d2b" opacity=".1"/>
        <path d="M51.994,12.159c-1.156,0-2.095.939-2.095,2.094s.939,2.089,2.095,2.089,2.088-.937,2.088-2.089-.937-2.094-2.088-2.094Z" fill="#2b2d2b" opacity=".1"/>
        <path d="M2.095,18.244c-1.156,0-2.095.939-2.095,2.094s.939,2.089,2.095,2.089,2.088-.937,2.088-2.089-.937-2.094-2.088-2.094Z" fill="#2b2d2b" opacity=".1"/>
        <path d="M2.095,24.324c-1.156,0-2.095.939-2.095,2.094s.939,2.089,2.095,2.089,2.088-.937,2.088-2.089-.937-2.094-2.088-2.094Z" fill="#2b2d2b" opacity=".1"/>
        <path d="M2.095,30.409c-1.156,0-2.095.937-2.095,2.088s.939,2.089,2.095,2.089,2.088-.937,2.088-2.089-.937-2.088-2.088-2.088Z" fill="#2b2d2b" opacity=".1"/>
        <path d="M2.095,36.489c-1.156,0-2.095.937-2.095,2.088s.939,2.095,2.095,2.095,2.088-.939,2.088-2.095-.937-2.088-2.088-2.088Z" fill="#2b2d2b" opacity=".1"/>
        <path d="M2.095,42.568c-1.156,0-2.095.937-2.095,2.088s.939,2.095,2.095,2.095,2.088-.939,2.088-2.095-.937-2.088-2.088-2.088Z" fill="#2b2d2b" opacity=".1"/>
        <path d="M2.095,48.647c-1.156,0-2.095.939-2.095,2.094s.939,2.089,2.095,2.089,2.088-.937,2.088-2.089-.937-2.094-2.088-2.094Z" fill="#2b2d2b" opacity=".1"/>
        <path d="M2.095,54.726c-1.156,0-2.095.939-2.095,2.095s.939,2.088,2.095,2.088,2.088-.937,2.088-2.088-.937-2.095-2.088-2.095Z" fill="#2b2d2b" opacity=".1"/>
        <path d="M2.095,0C.939,0,0,.937,0,2.088s.939,2.095,2.095,2.095,2.088-.939,2.088-2.095S3.246,0,2.095,0Z" fill="#2b2d2b" opacity=".1"/>
        <path d="M2.095,6.079c-1.156,0-2.095.939-2.095,2.094s.939,2.089,2.095,2.089,2.088-.937,2.088-2.089-.937-2.094-2.088-2.094Z" fill="#2b2d2b" opacity=".1"/>
        <path d="M2.095,12.159c-1.156,0-2.095.939-2.095,2.094s.939,2.089,2.095,2.089,2.088-.937,2.088-2.089-.937-2.094-2.088-2.094Z" fill="#2b2d2b" opacity=".1"/>
        <path d="M48.034,62.572c0-1.152-.937-2.089-2.089-2.089s-2.094.937-2.094,2.089.939,2.094,2.094,2.094,2.089-.939,2.089-2.094Z" fill="#2b2d2b" opacity=".1"/>
        <path d="M39.665,60.483c-1.156,0-2.095.937-2.095,2.089s.939,2.094,2.095,2.094,2.088-.939,2.088-2.094-.937-2.089-2.088-2.089Z" fill="#2b2d2b" opacity=".1"/>
        <path d="M35.473,62.572c0-1.152-.937-2.089-2.089-2.089s-2.094.937-2.094,2.089.939,2.094,2.094,2.094,2.089-.939,2.089-2.094Z" fill="#2b2d2b" opacity=".1"/>
        <path d="M27.105,60.483c-1.156,0-2.095.937-2.095,2.089s.939,2.094,2.095,2.094,2.088-.939,2.088-2.094-.937-2.089-2.088-2.089Z" fill="#2b2d2b" opacity=".1"/>
        <path d="M20.824,60.483c-1.155,0-2.094.937-2.094,2.089s.939,2.094,2.094,2.094,2.089-.939,2.089-2.094-.937-2.089-2.089-2.089Z" fill="#2b2d2b" opacity=".1"/>
        <path d="M14.545,60.483c-1.156,0-2.095.937-2.095,2.089s.939,2.094,2.095,2.094,2.088-.939,2.088-2.094-.937-2.089-2.088-2.089Z" fill="#2b2d2b" opacity=".1"/>
        <path d="M10.353,62.572c0-1.152-.939-2.089-2.095-2.089s-2.088.937-2.088,2.089.937,2.094,2.088,2.094,2.095-.939,2.095-2.094Z" fill="#2b2d2b" opacity=".1"/>
        <path d="M51.994,60.483c-1.156,0-2.095.937-2.095,2.089s.939,2.094,2.095,2.094,2.088-.939,2.088-2.094-.937-2.089-2.088-2.089Z" fill="#2b2d2b" opacity=".1"/>
        <path d="M2.095,60.483c-1.156,0-2.095.937-2.095,2.089s.939,2.094,2.095,2.094,2.088-.939,2.088-2.094-.937-2.089-2.088-2.089Z" fill="#2b2d2b" opacity=".1"/>
      </g>
      <g>
        <g>
          <path d="M92.07,43.532h10.288l-.342-5.968v-10.515l.342-5.968h-10.288v-3.979h15.062v20.462l-.341,5.968h10.288v4.263h-25.009v-4.263ZM101.732,7.155h5.684v5.4h-5.684v-5.4Z" fill="#2b2d2b"/>
          <path d="M125.327,39.44c0-5.968,3.921-8.81,8.355-8.81,3.182,0,6.82,2.046,9.151,5.228h1.307l-.909-8.242c0-5.684-2.217-7.105-5.002-7.105-4.66,0-5.343,3.922-5.343,7.105h-5.116c0-7.389,4.036-11.083,10.459-11.083s10.061,3.751,10.118,11.083v11.937c0,3.07.795,3.979,3.694,3.979v4.263c-4.888,0-5.968-1.648-5.968-8.242h-1.705c-1.136,4.604-5.456,8.81-10.061,8.81-5.399,0-8.98-4.263-8.98-8.924ZM134.307,44.1c2.729,0,6.253-1.875,7.674-6.764-2.501-2.387-5.116-3.411-6.935-3.411-2.899,0-4.718,1.876-4.718,5.514,0,3.183,1.422,4.66,3.979,4.66Z" fill="#2b2d2b"/>
          <path d="M196.956,27.106l.342-5.968v-.057h-3.468v-3.979h7.106l-1.705,8.242h1.705c1.477-6.821,5.513-8.81,10.231-8.81,6.309,0,8.811,5.343,8.811,13.585,0,.568,0,1.08-.057,1.592h-5.059v-1.592c0-6.082-1.137-9.549-4.661-9.549-4.036,0-8.128,4.035-8.128,11.765v15.461h-5.116v-20.689Z" fill="#2b2d2b"/>
          <path d="M233.624,39.554h-1.705l1.705,8.242h-3.979V4.029h5.116v7.56l-2.842,13.755h1.705c1.478-6.821,4.946-9.208,9.663-9.208,6.309,0,10.515,4.263,10.515,16.314,0,10.97-4.775,15.915-10.515,15.915-3.695,0-8.185-2.046-9.663-8.81ZM242.321,44.329c3.296,0,6.423-2.615,6.366-11.88-.056-8.981-2.841-12.278-6.366-12.278-3.922,0-7.56,4.15-7.56,12.278s3.638,11.88,7.56,11.88Z" fill="#2b2d2b"/>
          <path d="M265.176,27.106l.342-5.968v-.057h-3.468v-3.979h7.106l-1.705,8.242h1.705c1.477-6.821,5.513-8.81,10.231-8.81,6.309,0,8.811,5.343,8.811,13.585,0,.568,0,1.08-.057,1.592h-5.059v-1.592c0-6.082-1.137-9.549-4.661-9.549-4.036,0-8.128,4.035-8.128,11.765v15.461h-5.116v-20.689Z" fill="#2b2d2b"/>
          <path d="M297.297,32.563c0-10.516,5.229-16.029,12.505-16.029,7.218,0,11.368,5.399,11.368,12.448v4.263h-19.382l1.421,4.263c.398,3.979,2.16,6.593,6.594,6.593,3.751,0,5.399-1.933,5.854-5.684h5.229c-1.023,6.594-4.831,9.947-11.083,9.947-7.276,0-12.505-5.286-12.505-15.801ZM317.191,29.549l-1.422-4.262c-.624-2.388-2.102-4.775-5.968-4.775-3.297,0-5.628,1.762-6.594,4.775l-1.421,4.262h15.404Z" fill="#2b2d2b"/>
        </g>
        <path d="M170.801,27.323c-2.857,0-5.182,2.325-5.182,5.182s2.325,5.167,5.182,5.167,5.166-2.318,5.166-5.167-2.318-5.182-5.166-5.182Z" fill="#8aa08c"/>
      </g>
    </g>
  </g>
</svg>